<svg width="621" height="512" viewBox="0 0 621 512" fill="none" xmlns="http://www.w3.org/2000/svg">
<rect width="621" height="512" fill="#E5E5E5"/>
<rect y="293.27" width="89.4861" height="83.1694" transform="rotate(-44.9945 0 293.27)" fill="#0A4D8A"/>
<ellipse cx="85.7917" cy="290.593" rx="15.4494" ry="14.2205" transform="rotate(-1.39779 85.7917 290.593)" fill="white"/>
<circle cx="34.2" cy="291.2" r="14.2" fill="white"/>
<rect x="80" y="217.81" width="83.17" height="83.17" transform="rotate(-45 80 217.81)" fill="#EB3333"/>
<ellipse cx="137.45" cy="218.22" rx="15.45" ry="14.22" fill="white"/>
<path d="M401.5 139C327.77 139 268 198.77 268 272.5C268 346.23 327.77 406 401.5 406C475.23 406 535 346.23 535 272.5C535 198.77 475.23 139 401.5 139ZM471.538 202.462C506.769 237.693 509.219 291.542 482.669 329.307L344.693 191.332C382.484 164.763 436.326 167.251 471.538 202.462ZM331.462 342.538C296.231 307.307 293.781 253.458 320.331 215.693L458.307 353.668C420.517 380.237 366.674 377.75 331.462 342.538Z" fill="#030303"/>
<path fill-rule="evenodd" clip-rule="evenodd" d="M329.95 229.429V240.326C324.187 240.326 322 242.812 322 246.273V256.184C322 259.648 324.191 262.13 329.95 262.13V266.094C324.187 266.094 322 268.58 322 272.041V281.951C322 285.416 324.191 287.898 329.95 287.898V303.755C329.95 312.513 335.289 319.612 341.875 319.612V287.898H345.85V319.612H345.851C361.598 319.612 369.896 312.699 379.187 304.959C383.859 301.066 388.783 296.964 395.033 293.427L387.393 285.916H364.136C365.661 284.919 367.06 283.576 368.29 281.951H383.362L329.95 229.429ZM439.615 281.951C450.374 281.904 461.147 279.721 469.225 275.944C476.598 272.498 481 268.074 481 264.112C481 260.15 476.598 255.726 469.225 252.28C461.059 248.462 450.138 246.273 439.263 246.273H403.333L439.615 281.951ZM399.302 242.309H415.412C400.653 239.276 391.469 233.182 383.734 227L399.302 242.309ZM441.832 273.442C442.205 273.814 442.71 274.023 443.237 274.023C451.173 274.023 451.165 254.201 443.237 254.201C442.71 254.201 442.205 254.41 441.832 254.782C441.459 255.154 441.25 255.658 441.25 256.184V272.041C441.25 272.566 441.459 273.071 441.832 273.442Z" fill="#1C8A0A"/>
</svg>
